<?xml version="1.0" standalone="no"?>
<!DOCTYPE svg PUBLIC "-//W3C//DTD SVG 20010904//EN"
 "http://www.w3.org/TR/2001/REC-SVG-20010904/DTD/svg10.dtd">
<svg version="1.0" xmlns="http://www.w3.org/2000/svg"
 width="400.000000pt" height="400.000000pt" viewBox="0 0 400.000000 400.000000"
 preserveAspectRatio="xMidYMid meet">
<metadata>
Created by potrace 1.16, written by Peter Selinger 2001-2019
</metadata>
<g transform="translate(0.000000,400.000000) scale(0.100000,-0.100000)"
fill="#000000" stroke="none">
<path d="M1900 3115 c-154 -28 -371 -122 -545 -237 -175 -115 -327 -296 -395
-473 -24 -61 -38 -85 -51 -85 -10 0 -24 -3 -33 -6 -14 -5 -16 12 -16 156 0
159 0 163 26 193 19 22 24 37 19 56 -13 55 -65 74 -108 41 -33 -26 -36 -66 -7
-103 18 -23 20 -40 20 -191 0 -150 -2 -167 -17 -173 -39 -13 -86 -58 -104 -97
-16 -36 -19 -68 -19 -254 0 -168 3 -219 15 -241 18 -35 82 -68 151 -77 l51 -6
6 -172 c9 -272 53 -425 145 -508 51 -46 101 -63 188 -62 89 1 184 30 334 100
147 68 195 78 340 71 122 -7 177 -18 445 -90 234 -63 276 -71 385 -71 89 -1
101 2 162 32 146 72 206 221 216 533 l4 167 52 6 c69 9 133 42 151 77 12 22
15 73 15 241 0 240 -8 272 -72 321 -31 24 -129 57 -169 57 -10 0 -19 11 -23
31 -11 57 -87 203 -142 276 -98 127 -172 181 -294 212 -61 15 -69 19 -46 25
58 14 17 112 -65 152 -100 50 -278 52 -387 4 l-46 -21 44 41 c38 35 42 42 29
55 -16 16 -103 36 -153 34 -17 0 -65 -7 -106 -14z m-168 -758 c161 -79 247
-259 204 -427 -64 -252 -350 -367 -568 -228 -197 125 -232 397 -72 568 88 94
154 121 289 117 76 -2 99 -7 147 -30z m825 15 c148 -52 245 -193 246 -357 1
-69 -3 -89 -30 -146 -52 -111 -130 -180 -242 -213 -200 -59 -414 67 -467 273
-46 181 55 372 235 442 62 24 188 25 258 1z"/>
</g>
</svg>
