<?xml version="1.0" standalone="no"?>
<!DOCTYPE svg PUBLIC "-//W3C//DTD SVG 20010904//EN"
 "http://www.w3.org/TR/2001/REC-SVG-20010904/DTD/svg10.dtd">
<svg version="1.0" xmlns="http://www.w3.org/2000/svg"
 width="512.000000pt" height="512.000000pt" viewBox="0 0 512.000000 512.000000"
 preserveAspectRatio="xMidYMid meet">

<g transform="translate(0.000000,512.000000) scale(0.100000,-0.100000)"
fill="#000000" stroke="none">
<path d="M2989 4617 c-47 -24 -1049 -901 -1086 -950 -44 -59 -39 -160 11 -216
33 -37 1011 -898 1050 -925 95 -64 219 -27 267 79 15 33 19 66 19 193 l0 152
43 0 c127 -1 383 -55 535 -114 371 -143 654 -372 882 -711 53 -79 80 -110 110
-125 43 -22 112 -26 157 -9 42 15 92 68 103 109 15 54 12 326 -5 449 -96 689
-586 1290 -1240 1521 -163 57 -269 79 -527 105 l-58 6 0 152 c0 126 -4 159
-19 192 -22 48 -54 79 -103 100 -51 21 -87 19 -139 -8z m132 -106 l29 -29 0
-184 c0 -101 4 -189 9 -197 7 -11 51 -18 163 -28 255 -21 436 -69 648 -169
505 -241 870 -709 990 -1269 17 -76 23 -149 27 -302 l5 -201 -25 -26 c-26 -26
-66 -33 -101 -20 -9 3 -41 45 -72 93 -313 482 -819 795 -1389 861 -122 13
-228 13 -243 -2 -8 -8 -12 -67 -12 -199 0 -181 -1 -189 -22 -213 -13 -15 -37
-29 -54 -32 -38 -7 -15 -26 -609 498 -317 279 -483 433 -489 451 -8 21 -7 35
5 55 13 23 880 797 1012 903 59 47 88 49 128 10z"/>
<path d="M135 3126 c-38 -17 -80 -62 -94 -99 -16 -43 -13 -333 4 -456 112
-768 678 -1394 1427 -1576 87 -21 155 -31 341 -50 l57 -6 0 -152 c0 -126 4
-159 19 -192 22 -50 69 -91 119 -105 51 -14 71 -12 117 9 42 19 1054 903 1092
954 55 75 38 168 -45 249 -86 83 -976 865 -1016 892 -95 64 -219 27 -267 -79
-15 -33 -19 -66 -19 -192 l0 -153 -42 0 c-24 0 -90 7 -147 15 -524 75 -977
363 -1268 807 -35 54 -78 108 -96 120 -39 28 -137 35 -182 14z m126 -98 c9 -7
42 -53 74 -102 256 -391 658 -679 1109 -796 202 -52 484 -78 514 -48 8 8 12
67 12 199 0 183 1 189 24 215 29 35 84 38 118 7 13 -11 249 -219 525 -462 338
-297 505 -451 509 -467 4 -14 2 -36 -4 -48 -6 -13 -235 -220 -509 -461 -274
-241 -508 -447 -521 -459 -34 -30 -89 -27 -118 8 -23 26 -24 32 -24 215 0 139
-3 191 -12 198 -7 5 -80 15 -162 21 -258 21 -454 75 -681 187 -178 89 -295
175 -455 335 -161 161 -244 275 -340 465 -131 261 -180 461 -187 762 l-5 192
25 25 c29 29 82 35 108 14z"/>
</g>
</svg>
